<?xml version="1.0" encoding="UTF-8"?>
<svg xmlns="http://www.w3.org/2000/svg" xmlns:xlink="http://www.w3.org/1999/xlink" width="13pt" height="12pt" viewBox="0 0 13 12" version="1.1">
<g id="surface1">
<path style=" stroke:none;fill-rule:nonzero;fill:rgb(0%,0%,0%);fill-opacity:1;" d="M 6.5 0 C 2.914062 0 0 2.691406 0 6 C 0 9.308594 2.914062 12 6.5 12 C 10.085938 12 13 9.308594 13 6 C 13 2.691406 10.085938 0 6.5 0 Z M 6.5 10.910156 C 3.566406 10.910156 1.183594 8.707031 1.183594 6 C 1.183594 3.292969 3.566406 1.089844 6.5 1.089844 C 9.433594 1.089844 11.816406 3.292969 11.816406 6 C 11.816406 8.707031 9.433594 10.910156 6.5 10.910156 Z M 6.5 10.910156 "/>
<path style=" stroke:none;fill-rule:nonzero;fill:rgb(0%,0%,0%);fill-opacity:1;" d="M 8.9375 3.878906 L 5.59375 6.964844 L 4.0625 5.550781 C 3.832031 5.335938 3.457031 5.335938 3.226562 5.550781 C 2.996094 5.761719 2.996094 6.109375 3.226562 6.320312 L 5.175781 8.121094 C 5.289062 8.222656 5.4375 8.28125 5.59375 8.28125 C 5.75 8.28125 5.902344 8.222656 6.011719 8.121094 L 9.773438 4.648438 C 10.003906 4.4375 10.003906 4.089844 9.773438 3.878906 C 9.542969 3.664062 9.167969 3.664062 8.9375 3.878906 Z M 8.9375 3.878906 "/>
</g>
</svg>
