<?xml version="1.0" encoding="UTF-8"?>
<svg xmlns="http://www.w3.org/2000/svg" xmlns:xlink="http://www.w3.org/1999/xlink" width="13pt" height="13pt" viewBox="0 0 13 13" version="1.1">
<g id="surface1">
<path style=" stroke:none;fill-rule:nonzero;fill:rgb(0%,0%,0%);fill-opacity:1;" d="M 1.152344 13 C 0.921875 13 0.636719 12.863281 0.386719 12.613281 C 0.00390625 12.230469 -0.113281 11.765625 0.117188 11.535156 L 5.828125 5.824219 C 5.902344 5.75 6.023438 5.75 6.097656 5.824219 C 6.171875 5.898438 6.171875 6.019531 6.097656 6.09375 L 0.386719 11.804688 C 0.355469 11.835938 0.394531 12.082031 0.65625 12.34375 C 0.917969 12.605469 1.164062 12.644531 1.195312 12.613281 L 3.167969 10.640625 C 3.242188 10.566406 3.363281 10.566406 3.4375 10.640625 C 3.511719 10.714844 3.511719 10.835938 3.4375 10.910156 L 1.464844 12.882812 C 1.386719 12.960938 1.277344 13 1.152344 13 Z M 3.859375 10.40625 C 3.8125 10.40625 3.761719 10.390625 3.726562 10.351562 C 3.652344 10.277344 3.652344 10.15625 3.726562 10.082031 C 5.210938 8.59375 7.0625 6.746094 8.429688 5.378906 C 8.265625 5.316406 8.097656 5.199219 7.949219 5.050781 C 7.792969 4.898438 7.683594 4.730469 7.621094 4.570312 L 6.65625 5.535156 C 6.582031 5.609375 6.460938 5.609375 6.386719 5.535156 C 6.3125 5.460938 6.3125 5.339844 6.386719 5.265625 C 6.386719 5.265625 9.242188 2.414062 9.265625 2.390625 C 9.390625 2.261719 9.582031 2.234375 9.808594 2.308594 C 9.988281 2.367188 10.179688 2.492188 10.34375 2.65625 C 10.507812 2.820312 10.632812 3.011719 10.691406 3.191406 C 10.765625 3.417969 10.738281 3.609375 10.609375 3.734375 C 10.582031 3.761719 5.605469 8.742188 3.996094 10.351562 C 3.957031 10.390625 3.910156 10.40625 3.859375 10.40625 Z M 7.949219 4.242188 C 7.917969 4.277344 7.957031 4.523438 8.21875 4.78125 C 8.339844 4.902344 8.480469 4.996094 8.601562 5.039062 C 8.699219 5.070312 8.75 5.058594 8.757812 5.050781 C 9.679688 4.128906 10.3125 3.492188 10.34375 3.464844 C 10.351562 3.457031 10.359375 3.40625 10.328125 3.3125 C 10.289062 3.1875 10.195312 3.046875 10.074219 2.925781 C 9.953125 2.804688 9.8125 2.710938 9.6875 2.671875 C 9.59375 2.640625 9.542969 2.648438 9.535156 2.660156 C 9.511719 2.683594 9.039062 3.15625 8.316406 3.875 Z M 9.433594 9.253906 C 9.324219 9.253906 9.230469 9.164062 9.230469 9.050781 C 9.230469 8.9375 9.324219 8.847656 9.433594 8.847656 C 9.546875 8.847656 9.636719 8.9375 9.636719 9.050781 C 9.636719 9.164062 9.546875 9.253906 9.433594 9.253906 Z M 9.144531 8.199219 C 8.832031 8.199219 8.574219 7.945312 8.574219 7.628906 C 8.574219 7.3125 8.832031 7.058594 9.144531 7.058594 C 9.460938 7.058594 9.71875 7.3125 9.71875 7.628906 C 9.71875 7.945312 9.460938 8.199219 9.144531 8.199219 Z M 9.144531 7.4375 C 9.042969 7.4375 8.957031 7.523438 8.957031 7.628906 C 8.957031 7.734375 9.042969 7.820312 9.144531 7.820312 C 9.25 7.820312 9.335938 7.734375 9.335938 7.628906 C 9.335938 7.523438 9.25 7.4375 9.144531 7.4375 Z M 11.257812 7.484375 C 11.070312 7.484375 11.007812 7.265625 10.980469 7.160156 C 10.949219 7.046875 10.921875 6.902344 10.890625 6.761719 C 10.871094 6.640625 10.835938 6.472656 10.8125 6.398438 C 10.757812 6.378906 10.648438 6.347656 10.574219 6.328125 C 10.261719 6.242188 10.015625 6.175781 10.015625 5.957031 C 10.015625 5.742188 10.261719 5.675781 10.574219 5.589844 C 10.648438 5.566406 10.757812 5.539062 10.8125 5.515625 C 10.835938 5.445312 10.871094 5.273438 10.890625 5.15625 C 10.921875 5.015625 10.949219 4.867188 10.980469 4.753906 C 11.007812 4.648438 11.070312 4.433594 11.257812 4.433594 C 11.449219 4.433594 11.511719 4.648438 11.539062 4.753906 C 11.570312 4.867188 11.597656 5.015625 11.625 5.15625 C 11.648438 5.273438 11.683594 5.445312 11.707031 5.515625 C 11.761719 5.539062 11.871094 5.566406 11.945312 5.589844 C 12.257812 5.675781 12.503906 5.742188 12.503906 5.957031 C 12.503906 6.175781 12.257812 6.242188 11.945312 6.328125 C 11.871094 6.347656 11.761719 6.378906 11.707031 6.398438 C 11.683594 6.472656 11.648438 6.640625 11.625 6.761719 C 11.597656 6.902344 11.570312 7.046875 11.539062 7.160156 C 11.511719 7.265625 11.449219 7.484375 11.257812 7.484375 Z M 10.667969 5.957031 C 10.671875 5.957031 10.671875 5.957031 10.671875 5.960938 C 10.898438 6.019531 11.019531 6.054688 11.089844 6.128906 C 11.164062 6.203125 11.195312 6.324219 11.257812 6.652344 C 11.324219 6.324219 11.355469 6.203125 11.429688 6.128906 C 11.5 6.054688 11.621094 6.019531 11.84375 5.960938 C 11.847656 5.957031 11.847656 5.957031 11.851562 5.957031 C 11.847656 5.957031 11.847656 5.957031 11.84375 5.957031 C 11.621094 5.894531 11.5 5.859375 11.429688 5.789062 C 11.355469 5.714844 11.324219 5.589844 11.257812 5.261719 C 11.195312 5.589844 11.164062 5.714844 11.089844 5.789062 C 11.019531 5.859375 10.898438 5.894531 10.671875 5.957031 C 10.671875 5.957031 10.671875 5.957031 10.667969 5.957031 Z M 10.800781 6.375 Z M 10.800781 5.542969 Z M 9.765625 6.914062 C 9.65625 6.914062 9.5625 6.824219 9.5625 6.710938 C 9.5625 6.601562 9.65625 6.507812 9.765625 6.507812 C 9.878906 6.507812 9.96875 6.601562 9.96875 6.710938 C 9.96875 6.824219 9.878906 6.914062 9.765625 6.914062 Z M 12.359375 4.695312 C 12.253906 4.695312 12.167969 4.609375 12.167969 4.503906 L 12.167969 4.125 L 11.90625 4.125 C 11.800781 4.125 11.71875 4.039062 11.71875 3.933594 C 11.71875 3.828125 11.800781 3.742188 11.90625 3.742188 L 12.167969 3.742188 L 12.167969 3.363281 C 12.167969 3.257812 12.253906 3.171875 12.359375 3.171875 C 12.464844 3.171875 12.550781 3.257812 12.550781 3.363281 L 12.550781 3.742188 L 12.808594 3.742188 C 12.914062 3.742188 13 3.828125 13 3.933594 C 13 4.039062 12.914062 4.125 12.808594 4.125 L 12.550781 4.125 L 12.550781 4.503906 C 12.550781 4.609375 12.464844 4.695312 12.359375 4.695312 Z M 11.449219 3.550781 C 11.207031 3.550781 11.152344 3.253906 11.046875 2.71875 C 11.015625 2.570312 10.976562 2.351562 10.945312 2.273438 C 10.886719 2.246094 10.742188 2.207031 10.640625 2.179688 C 10.285156 2.082031 10.007812 2.003906 10.007812 1.773438 C 10.007812 1.546875 10.285156 1.46875 10.640625 1.371094 C 10.742188 1.34375 10.886719 1.304688 10.945312 1.277344 C 10.976562 1.199219 11.015625 0.980469 11.046875 0.828125 C 11.152344 0.292969 11.207031 0 11.449219 0 C 11.6875 0 11.742188 0.292969 11.847656 0.828125 C 11.878906 0.980469 11.921875 1.199219 11.949219 1.277344 C 12.007812 1.304688 12.152344 1.34375 12.253906 1.371094 C 12.609375 1.46875 12.886719 1.546875 12.886719 1.773438 C 12.886719 2.003906 12.609375 2.082031 12.253906 2.179688 C 12.152344 2.207031 12.007812 2.246094 11.949219 2.273438 C 11.921875 2.351562 11.878906 2.570312 11.847656 2.71875 C 11.742188 3.253906 11.6875 3.550781 11.449219 3.550781 Z M 10.613281 1.773438 C 10.660156 1.789062 10.703125 1.800781 10.742188 1.8125 C 11.003906 1.882812 11.140625 1.921875 11.222656 2.003906 C 11.304688 2.085938 11.339844 2.238281 11.421875 2.648438 C 11.429688 2.6875 11.4375 2.734375 11.449219 2.785156 C 11.457031 2.734375 11.464844 2.6875 11.472656 2.648438 C 11.554688 2.238281 11.589844 2.085938 11.671875 2.003906 C 11.753906 1.921875 11.890625 1.882812 12.152344 1.8125 C 12.191406 1.800781 12.234375 1.789062 12.28125 1.773438 C 12.234375 1.761719 12.191406 1.75 12.152344 1.738281 C 11.890625 1.667969 11.753906 1.625 11.671875 1.546875 C 11.589844 1.464844 11.554688 1.3125 11.472656 0.902344 C 11.464844 0.859375 11.457031 0.8125 11.449219 0.765625 C 11.4375 0.8125 11.429688 0.859375 11.421875 0.902344 C 11.339844 1.3125 11.304688 1.464844 11.222656 1.546875 C 11.140625 1.625 11.003906 1.667969 10.742188 1.738281 C 10.703125 1.75 10.660156 1.761719 10.613281 1.773438 Z M 10.9375 2.25 Z M 10.964844 1.269531 Z M 6.902344 3.453125 C 6.585938 3.453125 6.332031 3.195312 6.332031 2.882812 C 6.332031 2.566406 6.585938 2.308594 6.902344 2.308594 C 7.21875 2.308594 7.472656 2.566406 7.472656 2.882812 C 7.472656 3.195312 7.21875 3.453125 6.902344 3.453125 Z M 6.902344 2.691406 C 6.796875 2.691406 6.710938 2.777344 6.710938 2.882812 C 6.710938 2.984375 6.796875 3.070312 6.902344 3.070312 C 7.007812 3.070312 7.09375 2.984375 7.09375 2.882812 C 7.09375 2.777344 7.007812 2.691406 6.902344 2.691406 Z M 7.871094 1.601562 C 7.765625 1.601562 7.679688 1.515625 7.679688 1.410156 L 7.679688 1.027344 L 7.417969 1.027344 C 7.3125 1.027344 7.230469 0.941406 7.230469 0.839844 C 7.230469 0.734375 7.3125 0.648438 7.417969 0.648438 L 7.679688 0.648438 L 7.679688 0.265625 C 7.679688 0.160156 7.765625 0.078125 7.871094 0.078125 C 7.976562 0.078125 8.0625 0.160156 8.0625 0.265625 L 8.0625 0.648438 L 8.320312 0.648438 C 8.425781 0.648438 8.511719 0.734375 8.511719 0.839844 C 8.511719 0.941406 8.425781 1.027344 8.320312 1.027344 L 8.0625 1.027344 L 8.0625 1.410156 C 8.0625 1.515625 7.976562 1.601562 7.871094 1.601562 Z M 9.359375 1.144531 C 9.042969 1.144531 8.789062 0.886719 8.789062 0.570312 C 8.789062 0.257812 9.042969 0 9.359375 0 C 9.671875 0 9.929688 0.257812 9.929688 0.570312 C 9.929688 0.886719 9.671875 1.144531 9.359375 1.144531 Z M 9.359375 0.382812 C 9.253906 0.382812 9.167969 0.464844 9.167969 0.570312 C 9.167969 0.675781 9.253906 0.761719 9.359375 0.761719 C 9.464844 0.761719 9.550781 0.675781 9.550781 0.570312 C 9.550781 0.464844 9.464844 0.382812 9.359375 0.382812 Z M 9.359375 0.382812 "/>
</g>
</svg>
