<?xml version="1.0" encoding="UTF-8"?>
<svg xmlns="http://www.w3.org/2000/svg" xmlns:xlink="http://www.w3.org/1999/xlink" width="13pt" height="13pt" viewBox="0 0 13 13" version="1.1">
<g id="surface1">
<path style=" stroke:none;fill-rule:nonzero;fill:rgb(0%,0%,0%);fill-opacity:1;" d="M 11.078125 0.492188 C 11.027344 0.441406 10.953125 0.410156 10.878906 0.410156 C 10.804688 0.410156 10.734375 0.441406 10.679688 0.492188 L 6.644531 4.527344 L 6.640625 4.535156 C 6.632812 4.542969 6.625 4.550781 6.617188 4.558594 C 6.617188 4.5625 6.617188 4.5625 6.617188 4.566406 C 6.609375 4.574219 6.609375 4.578125 6.601562 4.585938 C 6.597656 4.589844 6.597656 4.59375 6.597656 4.597656 C 6.59375 4.605469 6.589844 4.609375 6.589844 4.617188 C 6.589844 4.621094 6.585938 4.621094 6.585938 4.625 L 5.867188 6.785156 C 5.835938 6.886719 5.859375 6.996094 5.9375 7.070312 C 5.988281 7.125 6.0625 7.152344 6.136719 7.152344 C 6.167969 7.152344 6.195312 7.148438 6.226562 7.140625 L 8.382812 6.417969 C 8.382812 6.417969 8.382812 6.417969 8.386719 6.417969 C 8.394531 6.414062 8.402344 6.410156 8.410156 6.40625 C 8.414062 6.40625 8.417969 6.40625 8.417969 6.402344 C 8.425781 6.398438 8.4375 6.390625 8.445312 6.386719 C 8.453125 6.378906 8.460938 6.371094 8.472656 6.367188 C 8.472656 6.363281 8.476562 6.363281 8.476562 6.359375 C 8.480469 6.359375 8.484375 6.355469 8.488281 6.347656 L 12.515625 2.324219 C 12.566406 2.269531 12.597656 2.199219 12.597656 2.125 C 12.597656 2.050781 12.566406 1.980469 12.515625 1.925781 Z M 6.976562 5.238281 L 7.769531 6.03125 L 6.578125 6.429688 Z M 8.292969 5.757812 L 7.25 4.714844 L 10.878906 1.089844 L 11.917969 2.128906 Z M 8.292969 5.757812 "/>
<path style=" stroke:none;fill-rule:nonzero;fill:rgb(0%,0%,0%);fill-opacity:1;" d="M 10.414062 5.664062 C 10.261719 5.664062 10.136719 5.789062 10.132812 5.945312 L 10.132812 11.199219 C 10.132812 11.664062 9.757812 12.039062 9.292969 12.039062 L 1.8125 12.039062 C 1.34375 12.039062 0.96875 11.664062 0.96875 11.199219 L 0.96875 3.714844 C 0.96875 3.25 1.34375 2.875 1.8125 2.875 L 7.0625 2.875 C 7.21875 2.875 7.34375 2.746094 7.34375 2.59375 C 7.34375 2.4375 7.21875 2.3125 7.0625 2.3125 L 1.8125 2.3125 C 1.035156 2.3125 0.40625 2.941406 0.40625 3.714844 L 0.40625 11.199219 C 0.40625 11.972656 1.035156 12.601562 1.8125 12.601562 L 9.292969 12.601562 C 10.066406 12.601562 10.695312 11.972656 10.695312 11.199219 L 10.695312 5.945312 C 10.695312 5.789062 10.570312 5.664062 10.414062 5.664062 Z M 10.414062 5.664062 "/>
</g>
</svg>
