<?xml version="1.0" encoding="UTF-8"?>
<svg xmlns="http://www.w3.org/2000/svg" xmlns:xlink="http://www.w3.org/1999/xlink" width="13pt" height="13pt" viewBox="0 0 13 13" version="1.1">
<g id="surface1">
<path style=" stroke:none;fill-rule:nonzero;fill:rgb(0%,0%,0%);fill-opacity:1;" d="M 8.367188 2.273438 L 2.324219 2.273438 C 1.753906 2.273438 1.296875 2.734375 1.296875 3.300781 L 1.296875 11.972656 C 1.296875 12.539062 1.753906 13 2.324219 13 L 8.367188 13 C 8.933594 13 9.394531 12.539062 9.394531 11.972656 L 9.394531 3.300781 C 9.390625 2.734375 8.929688 2.273438 8.367188 2.273438 Z M 8.671875 11.96875 C 8.671875 12.140625 8.535156 12.277344 8.363281 12.277344 L 2.320312 12.277344 C 2.148438 12.277344 2.011719 12.140625 2.011719 11.96875 L 2.011719 3.300781 C 2.011719 3.132812 2.148438 2.992188 2.320312 2.992188 L 8.363281 2.992188 C 8.535156 2.992188 8.671875 3.132812 8.671875 3.300781 Z M 8.671875 11.96875 "/>
<path style=" stroke:none;fill-rule:nonzero;fill:rgb(0%,0%,0%);fill-opacity:1;" d="M 10.675781 0 L 4.632812 0 C 4.066406 0 3.605469 0.460938 3.605469 1.027344 C 3.605469 1.226562 3.765625 1.386719 3.964844 1.386719 C 4.164062 1.386719 4.324219 1.226562 4.324219 1.027344 C 4.324219 0.855469 4.464844 0.71875 4.632812 0.71875 L 10.675781 0.71875 C 10.847656 0.71875 10.984375 0.855469 10.984375 1.027344 L 10.984375 9.699219 C 10.984375 9.867188 10.847656 10.007812 10.675781 10.007812 C 10.476562 10.007812 10.316406 10.167969 10.316406 10.367188 C 10.316406 10.566406 10.476562 10.726562 10.675781 10.726562 C 11.246094 10.726562 11.703125 10.265625 11.703125 9.699219 L 11.703125 1.027344 C 11.703125 0.460938 11.246094 0 10.675781 0 Z M 10.675781 0 "/>
</g>
</svg>
